<?xml version="1.0" standalone="no"?>
<!DOCTYPE svg PUBLIC "-//W3C//DTD SVG 20010904//EN"
 "http://www.w3.org/TR/2001/REC-SVG-20010904/DTD/svg10.dtd">
<svg version="1.0" xmlns="http://www.w3.org/2000/svg"
 width="115.000000pt" height="115.000000pt" viewBox="0 0 115.000000 115.000000"
 preserveAspectRatio="xMidYMid meet">
<metadata>
Created by potrace 1.14, written by Peter Selinger 2001-2017
</metadata>
<g transform="translate(0.000000,115.000000) scale(0.100000,-0.100000)"
fill="#000000" stroke="none">
<path d="M748 1140 c-105 -32 -188 -147 -179 -246 2 -17 67 -6 110 19 67 39
121 122 124 194 2 41 -8 48 -55 33z"/>
<path d="M760 872 c-14 -2 -60 -15 -104 -29 l-78 -25 -90 27 c-68 21 -101 26
-139 22 -155 -19 -258 -157 -257 -347 1 -205 142 -471 271 -512 33 -10 48 -9
105 10 103 32 143 34 222 7 116 -39 180 -19 252 79 30 41 112 196 106 200 -2
1 -19 13 -38 26 -74 51 -120 131 -120 210 0 60 31 132 76 175 24 24 44 48 44
53 0 15 -60 63 -99 79 -41 17 -116 30 -151 25z"/>
</g>
</svg>
